<svg xmlns="http://www.w3.org/2000/svg" role="img" viewBox="0 0 24 24" height="32" aria-label="Spotify">
  <title>Spotify</title>
  <path d="M12 0C5.373 0 0 5.373 0 12s5.373 12 12 12 12-5.373 12-12S18.627 0 12 0m5.215 17.29a.882.882 0 0 1-1.21.317c-3.314-2.02-7.49-2.48-12.38-1.372a.885.885 0 1 1-.392-1.73c5.292-1.18 9.88-.662 13.61 1.502a.885.885 0 0 1 .372 1.283m1.76-3.92a1.106 1.106 0 0 1-1.522.4c-3.798-2.338-9.582-3.02-14.102-1.67a1.107 1.107 0 1 1-.576-2.13c5.02-1.354 11.265-.605 15.507 2.02.516.317.675.99.39 1.527m.21-3.91c-4.472-2.612-11.86-2.85-16.05-1.57a1.33 1.33 0 0 1-.7-2.56c4.707-1.344 12.794-1.064 18 1.85.62.362.827 1.165.465 1.785-.364.617-1.17.823-1.79.496"/>
</svg>
